:SAMPLES-PER-SECOND 30
:FULLY-SPECIFIED
:DEGREES
266
root  -33.6243 35.0554 3.45619 -175.833 80.471 178.431
RightUpLeg  -3.78998 -8.12414 -1.73152
RightLeg  3.99003 7.88147 0.0439238
RightFoot  5.11384 0.00244702 0.812913
RightToes  -31.6178 -0.158046 -0.263377
Spine  -2.46462 0.496521 -0.517114
Spine1  -4.79286 1.14177 -0.357319
HEad  -61.9681 -6.90813 7.15187
LeftShoulder1  -1.94126e-019 -3.10601e-018 -2.51263e-017
LeftArm  -41.7192 12.7279 -84.594
LeftForeArm  -18.3304 -69.3721 -35.3313
LeftHand  0.31982 11.1603 7.32741
RightShoulder  -4.96962e-017 0 -2.36833e-017
RightArm  -43.9094 -10.118 80.4877
RightForeArm  -18.7747 63.4115 25.328
RightHand  -0.118929 -12.8993 0.67794
LeftUpLeg  -5.04835 1.45173 -1.16556
LeftLeg  3.94144 14.596 0.0648879
LeftFoot  6.63884 -0.103223 1.89054
LeftToes  -16.6984 1.89912e-006 4.45198e-008
267
root  -33.6228 35.0546 3.44512 -175.823 80.459 178.418
RightUpLeg  -3.73659 -8.16112 -1.74944
RightLeg  3.85237 7.90738 0.0251106
RightFoot  5.15636 0.00165129 0.820914
RightToes  -31.5881 -0.15814 -0.263632
Spine  -2.47276 0.500426 -0.494455
Spine1  -4.80877 1.15419 -0.315173
HEad  -61.7817 -7.18064 7.24361
LeftShoulder1  -1.94126e-019 -3.10601e-018 -2.51263e-017
LeftArm  -41.5174 12.7215 -84.4424
LeftForeArm  -18.3891 -69.1661 -34.872
LeftHand  0.313565 11.0912 7.28221
RightShoulder  -4.96962e-017 0 -2.36833e-017
RightArm  -44.0026 -10.4678 80.3722
RightForeArm  -18.9608 63.2111 25.0972
RightHand  -0.111511 -12.8352 0.613288
LeftUpLeg  -5.01757 1.4507 -1.18572
LeftLeg  3.83799 14.5859 0.0388042
LeftFoot  6.67834 -0.104461 1.89951
LeftToes  -16.7155 1.89912e-006 4.45198e-008
268
root  -33.6183 35.0537 3.43455 -175.783 80.4692 178.415
RightUpLeg  -3.67008 -8.22491 -1.76243
RightLeg  3.644 7.97504 -0.00361195
RightFoot  5.24804 -7.86041e-006 0.839313
RightToes  -31.6801 -0.15822 -0.263882
Spine  -2.48467 0.488013 -0.458316
Spine1  -4.83294 1.1336 -0.246268
HEad  -61.778 -7.27173 7.29728
LeftShoulder1  -1.94126e-019 -3.10601e-018 -2.51263e-017
LeftArm  -41.4228 12.7812 -84.2943
LeftForeArm  -18.758 -68.8787 -34.2752
LeftHand  0.312146 11.0331 7.32539
RightShoulder  -4.96962e-017 0 -2.36833e-017
RightArm  -44.0808 -10.8126 80.2276
RightForeArm  -19.1686 62.9578 24.809
RightHand  -0.11155 -12.8459 0.647454
LeftUpLeg  -4.98061 1.45786 -1.20347
LeftLeg  3.70003 14.592 0.00408354
LeftFoot  6.7259 -0.105938 1.91252
LeftToes  -16.718 1.89912e-006 4.45198e-008
269
root  -33.6133 35.0531 3.42776 -175.697 80.5071 178.439
RightUpLeg  -3.61705 -8.30245 -1.77266
RightLeg  3.41074 8.11195 -0.0366182
RightFoot  5.37974 -0.00264585 0.869682
RightToes  -31.8918 -0.158285 -0.264126
Spine  -2.49498 0.456338 -0.418382
Spine1  -4.85498 1.07266 -0.173908
HEad  -61.858 -7.24654 7.39674
LeftShoulder1  -1.94126e-019 -3.10601e-018 -2.51263e-017
LeftArm  -41.5088 12.9251 -84.1613
LeftForeArm  -19.6107 -68.6036 -33.7658
LeftHand  0.31918 11.1498 7.32718
RightShoulder  -4.96962e-017 0 -2.36833e-017
RightArm  -44.2169 -11.0938 80.1147
RightForeArm  -19.5458 62.5897 24.4076
RightHand  -0.108696 -12.7928 0.39094
LeftUpLeg  -4.94628 1.55526 -1.20764
LeftLeg  3.5203 14.5308 -0.0410058
LeftFoot  6.8064 -0.107409 1.92555
LeftToes  -16.832 1.89912e-006 4.45198e-008
270
root  -33.6072 35.0529 3.42625 -175.542 80.5861 178.505
RightUpLeg  -3.56801 -8.3532 -1.75115
RightLeg  3.1257 8.22715 -0.0779641
RightFoot  5.49163 -0.00513823 0.895879
RightToes  -31.9699 -0.158335 -0.264364
Spine  -2.51822 0.431878 -0.37401
Spine1  -4.9042 1.02483 -0.101767
HEad  -61.977 -7.22346 7.5016
LeftShoulder1  -1.94126e-019 -3.10601e-018 -2.51263e-017
LeftArm  -41.5966 13.1423 -84.0664
LeftForeArm  -20.0286 -68.3155 -33.2094
LeftHand  0.31042 11.0739 7.24456
RightShoulder  -4.96962e-017 0 -2.36833e-017
RightArm  -44.6388 -11.3999 80.0781
RightForeArm  -19.8234 62.0766 23.8499
RightHand  -0.107147 -12.741 0.472062
LeftUpLeg  -4.90518 1.65264 -1.19896
LeftLeg  3.28595 14.5076 -0.0996193
LeftFoot  6.88485 -0.109146 1.94273
LeftToes  -16.8943 1.89912e-006 4.45198e-008
271
root  -33.6039 35.053 3.4268 -175.307 80.6704 178.633
RightUpLeg  -3.54278 -8.43137 -1.71948
RightLeg  2.82376 8.38329 -0.123504
RightFoot  5.65634 -0.00862861 0.93416
RightToes  -32.1017 -0.158372 -0.264594
Spine  -2.53764 0.406076 -0.33287
Spine1  -4.94812 0.97353 -0.0358653
HEad  -62.1576 -7.1616 7.73917
LeftShoulder1  -1.94126e-019 -3.10601e-018 -2.51263e-017
LeftArm  -41.8531 13.3821 -84.0451
LeftForeArm  -20.4487 -67.9381 -32.4973
LeftHand  0.309614 11.0276 7.28209
RightShoulder  -4.96962e-017 0 -2.36833e-017
RightArm  -45.0148 -11.8077 80.0148
RightForeArm  -20.1152 61.509 23.2572
RightHand  -0.0971776 -12.5506 0.438883
LeftUpLeg  -4.86849 1.72634 -1.18192
LeftLeg  3.01516 14.5218 -0.167582
LeftFoot  7.00205 -0.111844 1.97468
LeftToes  -17.0197 1.89912e-006 4.45198e-008
272
root  -33.5995 35.0532 3.42974 -175.075 80.7563 178.753
RightUpLeg  -3.55901 -8.44431 -1.68127
RightLeg  2.61478 8.47029 -0.155597
RightFoot  5.73358 -0.0109697 0.953776
RightToes  -32.1559 -0.158396 -0.264817
Spine  -2.54214 0.387132 -0.29927
Spine1  -4.96431 0.936536 0.0176884
HEad  -62.42 -7.1616 8.05111
LeftShoulder1  -1.94126e-019 -3.10601e-018 -2.51263e-017
LeftArm  -42.2319 13.5501 -84.0472
LeftForeArm  -20.9916 -67.1751 -31.1267
LeftHand  0.298026 10.8643 7.24303
RightShoulder  -4.96962e-017 0 -2.36833e-017
RightArm  -45.1919 -12.2803 79.8022
RightForeArm  -19.966 60.7316 22.447
RightHand  -0.0772421 -12.2727 0.158438
LeftUpLeg  -4.82639 1.88709 -1.15979
LeftLeg  2.72381 14.434 -0.23919
LeftFoot  7.10308 -0.113434 1.98906
LeftToes  -17.1114 1.89912e-006 4.45198e-008
273
root  -33.5933 35.0528 3.4334 -174.862 80.8354 178.85
RightUpLeg  -3.58228 -8.42348 -1.64679
RightLeg  2.42746 8.53266 -0.18457
RightFoot  5.77005 -0.0129093 0.96533
RightToes  -31.995 -0.158407 -0.265031
Spine  -2.55107 0.376803 -0.275024
Spine1  -4.993 0.920202 0.0550523
HEad  -62.5389 -7.29521 8.35911
LeftShoulder1  -1.94126e-019 -3.10601e-018 -2.51263e-017
LeftArm  -42.7301 13.5974 -84.025
LeftForeArm  -22.2668 -65.5581 -28.5799
LeftHand  0.259179 10.3646 7.03172
RightShoulder  -4.96962e-017 0 -2.36833e-017
RightArm  -45.0578 -12.834 79.3031
RightForeArm  -17.4793 59.0324 20.677
RightHand  -0.0977286 -10.9125 0.762248
LeftUpLeg  -4.7756 2.0293 -1.14137
LeftLeg  2.4136 14.3714 -0.315156
LeftFoot  7.19811 -0.115599 2.00493
LeftToes  -17.0266 1.89912e-006 4.45198e-008
274
root  -33.5864 35.0508 3.43584 -174.696 80.8423 178.909
RightUpLeg  -3.61275 -8.50172 -1.6274
RightLeg  2.28464 8.63494 -0.208238
RightFoot  5.84519 -0.0157037 0.986685
RightToes  -32.1229 -0.158405 -0.265237
Spine  -2.56097 0.362751 -0.26443
Spine1  -5.03036 0.900746 0.0731338
HEad  -62.3922 -7.50321 8.71257
LeftShoulder1  -1.94126e-019 -3.10601e-018 -2.51263e-017
LeftArm  -43.4562 13.4093 -83.913
LeftForeArm  -24.0783 -62.4803 -24.6613
LeftHand  0.192807 9.78223 6.19523
RightShoulder  -4.96962e-017 0 -2.36833e-017
RightArm  -44.8934 -13.2193 78.552
RightForeArm  -12.6621 55.8048 17.7878
RightHand  -0.0835183 -8.60787 1.24344
LeftUpLeg  -4.7349 2.11263 -1.12759
LeftLeg  2.13206 14.279 -0.382616
LeftFoot  7.30445 -0.118207 2.01912
LeftToes  -17.0507 1.89912e-006 4.45198e-008
275
root  -33.5783 35.0456 3.43567 -174.623 80.79 178.875
RightUpLeg  -3.70305 -8.57944 -1.61435
RightLeg  2.28973 8.64622 -0.207739
RightFoot  5.84349 -0.0172285 0.987421
RightToes  -32.2792 -0.158392 -0.265432
Spine  -2.57428 0.308141 -0.262649
Spine1  -5.07874 0.795979 0.0905583
HEad  -61.9596 -7.75416 9.01831
LeftShoulder1  -1.94126e-019 -3.10601e-018 -2.51263e-017
LeftArm  -44.7411 12.9816 -83.7537
LeftForeArm  -24.8608 -57.4566 -19.9003
LeftHand  0.0902562 8.50437 4.80407
RightShoulder  -4.96962e-017 0 -2.36833e-017
RightArm  -44.4996 -13.2624 77.5653
RightForeArm  -5.67171 50.6286 14.1503
RightHand  -0.0564494 -6.5233 1.90617
LeftUpLeg  -4.7028 2.11292 -1.13248
LeftLeg  1.85139 14.2527 -0.451046
LeftFoot  7.42938 -0.121632 2.04632
LeftToes  -17.4891 1.89912e-006 4.45198e-008
276
root  -33.5665 35.0394 3.4343 -174.64 80.7853 178.756
RightUpLeg  -3.83193 -8.54101 -1.62545
RightLeg  2.39831 8.61881 -0.190786
RightFoot  5.72494 -0.0174164 0.966496
RightToes  -32.1343 -0.158367 -0.265617
Spine  -2.58892 0.225442 -0.271443
Spine1  -5.13477 0.627505 0.107601
HEad  -61.43 -7.84736 9.20448
LeftShoulder1  -1.94126e-019 -3.10601e-018 -2.51263e-017
LeftArm  -46.1399 12.5175 -83.22
LeftForeArm  -23.1408 -50.5519 -15.2627
LeftHand  0.0117343 6.94931 3.36366
RightShoulder  -4.96962e-017 0 -2.36833e-017
RightArm  -43.8729 -12.874 76.4778
RightForeArm  1.90497 43.1647 10.3711
RightHand  -0.0201043 -4.87504 1.83308
LeftUpLeg  -4.66766 2.11659 -1.15211
LeftLeg  1.61959 14.2094 -0.506633
LeftFoot  7.52065 -0.123728 2.062
LeftToes  -17.3765 1.89912e-006 4.45198e-008
277
root  -33.5481 35.0254 3.43156 -174.568 80.8143 178.744
RightUpLeg  -4.02731 -8.59451 -1.6174
RightLeg  2.67347 8.68085 -0.150543
RightFoot  5.59236 -0.0182234 0.951771
RightToes  -32.4024 -0.158332 -0.26579
Spine  -2.59835 0.113217 -0.25381
Spine1  -5.18268 0.393965 0.155923
HEad  -61.0459 -7.82801 9.38312
LeftShoulder1  -1.94126e-019 -3.10601e-018 -2.51263e-017
LeftArm  -46.9207 12.2158 -82.2266
LeftForeArm  -16.5958 -42.3508 -11.2039
LeftHand  -0.0371059 4.93617 3.51565
RightShoulder  -4.96962e-017 0 -2.36833e-017
RightArm  -42.7742 -12.187 75.3373
RightForeArm  11.9527 33.6632 6.78821
RightHand  -0.0051522 -3.48175 0.879396
LeftUpLeg  -4.72856 2.28773 -1.15616
LeftLeg  1.64214 14.0711 -0.496318
LeftFoot  7.47003 -0.121478 2.0281
LeftToes  -17.5296 1.89912e-006 4.45198e-008
278
root  -33.5194 35.0092 3.42906 -174.533 80.9955 178.685
RightUpLeg  -4.28051 -8.41734 -1.61744
RightLeg  3.05899 8.67935 -0.0922599
RightFoot  5.31451 -0.0172435 0.908799
RightToes  -32.0855 -0.158286 -0.265952
Spine  -2.58628 0.0280017 -0.22164
Spine1  -5.18304 0.205825 0.229593
HEad  -61.0184 -7.71104 9.53318
LeftShoulder1  -1.94126e-019 -3.10601e-018 -2.51263e-017
LeftArm  -45.7312 12.1995 -80.9537
LeftForeArm  -4.52825 -33.51 -7.69178
LeftHand  -0.082586 3.95137 5.29688
RightShoulder  -4.96962e-017 0 -2.36833e-017
RightArm  -40.7635 -11.3408 74.281
RightForeArm  25.5916 22.7204 3.5033
RightHand  -0.0631891 -3.12413 -2.44418
LeftUpLeg  -4.79318 2.44086 -1.16668
LeftLeg  1.72926 14.087 -0.475652
LeftFoot  7.33643 -0.117545 1.99489
LeftToes  -17.4965 1.89912e-006 4.45198e-008
279
root  -33.4679 34.9705 3.43455 -174.423 81.2294 178.643
RightUpLeg  -4.81331 -8.23205 -1.60015
RightLeg  3.93455 8.73761 0.040279
RightFoot  4.84124 -0.0146833 0.840451
RightToes  -32.0832 -0.15823 -0.2661
Spine  -2.5152 0.0380117 -0.134843
Spine1  -5.07605 0.266423 0.357189
HEad  -61.5771 -7.44718 9.57904
LeftShoulder1  -1.94126e-019 -3.10601e-018 -2.51263e-017
LeftArm  -40.8768 12.4457 -79.6952
LeftForeArm  9.43287 -24.3428 -4.63191
LeftHand  -0.170111 3.31514 8.88573
RightShoulder  -4.96962e-017 0 -2.36833e-017
RightArm  -38.176 -11.2131 73.403
RightForeArm  41.3968 12.6329 1.60042
RightHand  -0.109794 -3.37346 -5.46994
LeftUpLeg  -5.14453 2.67996 -1.15911
LeftLeg  2.37553 14.0675 -0.317889
LeftFoot  6.91566 -0.104025 1.88301
LeftToes  -17.4782 1.89912e-006 4.45198e-008
280
root  -33.404 34.8956 3.44031 -174.305 81.5797 178.581
RightUpLeg  -5.7468 -7.89557 -1.57921
RightLeg  5.59685 8.73259 0.292918
RightFoot  3.95086 -0.00712679 0.697853
RightToes  -31.9771 -0.158165 -0.266236
Spine  -2.42018 0.125367 -0.00697986
Spine1  -4.9322 0.480055 0.521105
HEad  -62.5141 -7.04312 9.645
LeftShoulder1  -1.94126e-019 -3.10601e-018 -2.51263e-017
LeftArm  -35.3652 13.374 -78.9199
LeftForeArm  20.3063 -15.5368 -2.79099
LeftHand  -0.257605 2.58669 10.3622
RightShoulder  -4.96962e-017 0 -2.36833e-017
RightArm  -38.1889 -13.0043 73.1419
RightForeArm  59.3788 7.7578 1.32414
RightHand  -0.138998 -3.53052 -7.80326
LeftUpLeg  -5.87188 2.94346 -1.15969
LeftLeg  3.81583 14.1475 0.032234
LeftFoot  6.09798 -0.0807265 1.67703
LeftToes  -17.482 1.89912e-006 4.45198e-008
